<svg width="467" height="426" viewBox="0 0 467 426" fill="none" xmlns="http://www.w3.org/2000/svg">
<g clip-path="url(#clip0)">
<path d="M121.491 207.188H107.02V216.163H121.491V207.188Z" fill="#006CFF"/>
<path opacity="0.18" d="M23.245 390.065C19.6578 391.117 15.1882 393.829 16.4581 397.343C17.0607 399.025 18.8256 399.963 20.4614 400.7C34.2647 406.875 49.3388 409.698 64.4473 408.938C54.9479 410.111 46.0814 414.31 39.1649 420.911C60.7669 425.621 83.0791 425.757 105.169 425.843C161.363 426.048 217.562 426.062 273.766 425.885C308.469 425.771 343.185 425.585 377.859 424.096C401.34 423.087 425.045 421.434 447.522 414.577C456.346 411.893 466.34 406.619 467 397.401L445.621 391.081C444.229 390.666 442.658 390.1 442.119 388.748C441.115 386.243 444.487 384.067 444.796 381.383C445.197 377.805 440.491 376.166 436.954 375.836C395.515 372 353.818 376.33 312.228 377.984C260.659 379.987 209.039 377.819 157.563 374.62C111.511 371.75 67.9484 376.982 23.245 390.065Z" fill="#006CFF"/>
<path d="M191.225 86.2854C189.79 98.9318 194.719 112.394 189.79 124.117C188.499 127.181 186.784 131.274 189.389 133.314C190.278 133.921 191.324 134.259 192.402 134.287C194.693 134.479 196.999 134.191 199.173 133.442C201.346 132.693 203.338 131.498 205.021 129.936C205.301 131.768 207.31 132.921 209.175 132.963C211.041 133.006 212.813 132.248 214.585 131.682C223.689 128.755 233.547 130.48 242.988 131.99C247.364 132.706 252.236 133.235 255.902 130.73C259.559 132.401 263.54 133.246 267.562 133.204C271.584 133.162 275.547 132.234 279.168 130.487C278.15 126.486 274.44 123.738 272.711 119.988C271.406 117.125 271.327 113.883 271.277 110.748C271.162 104.488 271.049 98.2257 270.939 91.9609C270.803 84.5176 270.574 76.7236 266.907 70.2465C263.672 64.5209 259.389 47.9882 231.574 47.9882C199.777 47.9595 192.33 76.5017 191.225 86.2854Z" fill="#3F3D56"/>
<path d="M204.741 102.761C205.617 106.218 208.451 108.937 211.686 110.469C214.922 112.001 218.531 112.502 222.089 112.831C232.047 113.754 242.514 113.346 251.396 108.751C254.826 106.976 258.334 103.655 257.473 99.8909C257.391 99.4085 257.192 98.9534 256.893 98.5655C256.594 98.1775 256.204 97.8684 255.758 97.6651C255.161 97.4936 254.532 97.4642 253.922 97.5792C244.143 98.6098 234.321 99.9481 224.457 99.5903C219.808 99.4185 214.721 99.1036 210.287 97.5649C208.601 96.978 207.934 96.0189 206.169 97.207C204.404 98.3951 204.275 100.922 204.741 102.761Z" fill="#EAC5B0"/>
<path d="M204.684 71.7852C203.127 73.0622 202.049 74.8283 201.628 76.7951C201.221 78.7502 201.117 80.756 201.32 82.7426C201.397 84.6739 201.757 86.5835 202.388 88.4109C203.196 90.3199 204.248 92.1169 205.517 93.7572C206.535 95.1887 207.566 96.6201 208.609 98.0515C209.398 95.7684 210.897 93.7572 211.722 91.5171C212.241 89.8219 212.653 88.0961 212.956 86.3497C213.624 83.401 214.771 80.5454 215.109 77.5323C215.317 75.5927 215.711 70.6687 213.2 70.1248C210.524 69.5379 206.858 70.1462 204.684 71.7852Z" fill="#3F3D56"/>
<path d="M425.26 254.618L418.021 310.543L416.292 323.712L408.694 382.034C408.692 385.7 407.231 389.216 404.632 391.807C402.033 394.399 398.508 395.855 394.833 395.855H98.9488C95.2814 395.843 91.768 394.382 89.1781 391.792C86.5882 389.202 85.1329 385.693 85.131 382.034L77.9567 323.705L76.3353 310.543L69.3474 254.618C69.3474 252.8 69.7067 251.001 70.4046 249.322C71.1025 247.643 72.1254 246.117 73.4148 244.833C74.7042 243.549 76.2347 242.531 77.9189 241.837C79.603 241.143 81.4078 240.788 83.2298 240.791H411.406C415.081 240.793 418.605 242.25 421.203 244.843C423.801 247.436 425.26 250.952 425.26 254.618Z" fill="#006CFF"/>
<path d="M425.26 254.618L418.021 310.543L416.292 323.712L408.694 382.034C408.692 385.7 407.231 389.216 404.632 391.807C402.033 394.399 398.508 395.855 394.833 395.855H98.9488C95.2814 395.843 91.768 394.382 89.1781 391.792C86.5882 389.202 85.1329 385.693 85.131 382.034L77.9567 323.705L76.3353 310.543L69.3474 254.618C69.3474 252.8 69.7067 251.001 70.4046 249.322C71.1025 247.643 72.1254 246.117 73.4148 244.833C74.7042 243.549 76.2347 242.531 77.9189 241.837C79.603 241.143 81.4078 240.788 83.2298 240.791H411.406C415.081 240.793 418.605 242.25 421.203 244.843C423.801 247.436 425.26 250.952 425.26 254.618Z" fill="url(#paint0_linear)"/>
<path d="M425.26 254.618L418.021 310.543L416.292 323.712L408.694 382.034C408.692 385.7 407.231 389.216 404.632 391.807C402.032 394.399 398.508 395.855 394.833 395.855H145.826C142.16 395.84 138.65 394.377 136.062 391.787C133.474 389.198 132.019 385.691 132.015 382.034L124.841 323.705L123.198 310.543L116.303 254.618C116.303 250.952 117.763 247.436 120.36 244.843C122.958 242.25 126.482 240.793 130.157 240.791H411.391C413.212 240.79 415.016 241.147 416.698 241.841C418.381 242.536 419.909 243.554 421.197 244.838C422.485 246.122 423.507 247.647 424.204 249.325C424.901 251.003 425.26 252.802 425.26 254.618Z" fill="#006CFF"/>
<path d="M417.999 310.536L416.292 323.712H77.8847L76.2704 310.536H417.999Z" fill="url(#paint1_linear)"/>
<path d="M139.19 232.704V240.791H92.0254V232.704C92.0216 228.318 93.7637 224.111 96.8688 221.007C99.9739 217.902 104.188 216.155 108.584 216.15H122.624C127.019 216.15 131.235 217.891 134.343 220.992C137.451 224.092 139.197 228.297 139.197 232.682L139.19 232.704Z" fill="#006CFF"/>
<path d="M139.19 232.703V240.791H98.5326C98.5326 240.791 97.9084 235.559 99.4079 227.472C100.907 219.384 110.887 216.164 110.887 216.164V207.181H121.512V216.149H122.689C127.075 216.17 131.274 217.924 134.367 221.026C137.459 224.129 139.193 228.328 139.19 232.703Z" fill="url(#paint2_linear)"/>
<path d="M139.828 203.731V210.695L135.839 209.343L128.729 206.923V204.19H98.5324V206.916L93.3166 208.691L87.4337 210.681V203.717C87.4337 200.771 88.6068 197.946 90.6949 195.863C92.7831 193.78 95.6152 192.609 98.5683 192.609H128.701C130.163 192.609 131.611 192.897 132.962 193.455C134.312 194.013 135.54 194.831 136.574 195.863C137.608 196.894 138.428 198.119 138.988 199.466C139.547 200.814 139.835 202.258 139.835 203.717L139.828 203.731Z" fill="#006CFF"/>
<path d="M135.839 207.911V209.343L128.729 206.923V204.189H98.5323V206.916L93.3166 208.691V207.911C93.3166 205.521 94.2682 203.229 95.9621 201.54C97.6561 199.85 99.9535 198.9 102.349 198.9H126.799C129.195 198.9 131.492 199.85 133.186 201.54C134.88 203.229 135.832 205.521 135.832 207.911H135.839Z" fill="url(#paint3_linear)"/>
<path d="M98.5324 206.931V208.677L87.4265 212.299V210.696L98.5324 206.931Z" fill="url(#paint4_linear)"/>
<path d="M103.727 208.913C103.726 209.467 103.555 210.007 103.235 210.459C102.915 210.911 102.463 211.254 101.94 211.44L86.6086 216.958C86.2751 217.077 85.9213 217.13 85.5673 217.113C85.2134 217.096 84.8662 217.01 84.5458 216.859C84.2253 216.708 83.9378 216.496 83.6996 216.234C83.4615 215.972 83.2773 215.666 83.1577 215.333V215.298L83.0717 215.018C82.8409 214.347 82.8865 213.612 83.1986 212.975C83.5107 212.338 84.0637 211.85 84.7361 211.619L87.4337 210.703L98.5324 206.938L100.168 206.38C100.835 206.157 101.564 206.202 102.198 206.507C102.832 206.812 103.321 207.352 103.562 208.012C103.67 208.3 103.726 208.605 103.727 208.913Z" fill="#006CFF"/>
<path d="M139.835 210.696V212.299L128.715 208.677V206.931L139.835 210.696Z" fill="url(#paint5_linear)"/>
<path d="M144.212 215.018L144.111 215.297C143.999 215.63 143.821 215.938 143.59 216.203C143.358 216.468 143.076 216.685 142.76 216.841C142.444 216.997 142.101 217.09 141.749 217.113C141.397 217.137 141.045 217.092 140.711 216.979H140.624L125.278 211.461C124.757 211.275 124.306 210.932 123.989 210.48C123.671 210.027 123.503 209.487 123.506 208.935C123.509 208.625 123.562 208.318 123.664 208.026C123.909 207.368 124.4 206.83 125.035 206.526C125.669 206.221 126.397 206.174 127.065 206.394L128.693 206.945L139.792 210.717L142.497 211.633C142.831 211.745 143.14 211.922 143.405 212.153C143.671 212.384 143.888 212.666 144.045 212.981C144.201 213.296 144.294 213.638 144.318 213.989C144.341 214.34 144.296 214.692 144.183 215.025L144.212 215.018Z" fill="#006CFF"/>
<path d="M123.155 228.001H107.02C106.449 228.001 105.902 227.775 105.498 227.372C105.094 226.97 104.868 226.424 104.868 225.854L107.608 219.785C107.608 219.216 107.835 218.669 108.239 218.267C108.642 217.864 109.19 217.638 109.761 217.638H119.338C119.909 217.638 120.457 217.864 120.86 218.267C121.264 218.669 121.491 219.216 121.491 219.785L125.293 225.854C125.293 226.421 125.068 226.965 124.668 227.367C124.267 227.77 123.723 227.997 123.155 228.001Z" fill="#006CFF"/>
<path d="M111.676 220.286H110.083C109.893 220.286 109.711 220.211 109.576 220.076C109.441 219.942 109.366 219.76 109.366 219.57C109.366 219.38 109.441 219.198 109.576 219.064C109.711 218.93 109.893 218.855 110.083 218.855H111.676C111.866 218.855 112.049 218.93 112.183 219.064C112.318 219.198 112.393 219.38 112.393 219.57C112.393 219.76 112.318 219.942 112.183 220.076C112.049 220.211 111.866 220.286 111.676 220.286Z" fill="url(#paint6_linear)"/>
<path d="M115.629 220.286H114.079C113.889 220.286 113.707 220.211 113.572 220.076C113.438 219.942 113.362 219.76 113.362 219.57C113.362 219.38 113.438 219.198 113.572 219.064C113.707 218.93 113.889 218.855 114.079 218.855H115.672C115.862 218.855 116.045 218.93 116.179 219.064C116.314 219.198 116.389 219.38 116.389 219.57C116.389 219.76 116.314 219.942 116.179 220.076C116.045 220.211 115.862 220.286 115.672 220.286H115.629Z" fill="url(#paint7_linear)"/>
<path d="M119.568 220.286H117.975C117.785 220.286 117.602 220.211 117.468 220.076C117.333 219.942 117.258 219.76 117.258 219.57C117.258 219.38 117.333 219.198 117.468 219.064C117.602 218.93 117.785 218.855 117.975 218.855H119.568C119.758 218.855 119.941 218.93 120.075 219.064C120.21 219.198 120.285 219.38 120.285 219.57C120.285 219.76 120.21 219.942 120.075 220.076C119.941 220.211 119.758 220.286 119.568 220.286Z" fill="url(#paint8_linear)"/>
<path d="M111.676 222.433H110.083C109.893 222.433 109.711 222.358 109.576 222.223C109.441 222.089 109.366 221.907 109.366 221.717C109.366 221.527 109.441 221.345 109.576 221.211C109.711 221.077 109.893 221.002 110.083 221.002H111.676C111.866 221.002 112.049 221.077 112.183 221.211C112.318 221.345 112.393 221.527 112.393 221.717C112.393 221.907 112.318 222.089 112.183 222.223C112.049 222.358 111.866 222.433 111.676 222.433Z" fill="url(#paint9_linear)"/>
<path d="M115.629 222.433H114.079C113.889 222.433 113.707 222.358 113.572 222.223C113.438 222.089 113.362 221.907 113.362 221.717C113.362 221.527 113.438 221.345 113.572 221.211C113.707 221.077 113.889 221.002 114.079 221.002H115.672C115.862 221.002 116.045 221.077 116.179 221.211C116.314 221.345 116.389 221.527 116.389 221.717C116.389 221.907 116.314 222.089 116.179 222.223C116.045 222.358 115.862 222.433 115.672 222.433H115.629Z" fill="url(#paint10_linear)"/>
<path d="M119.568 222.433H117.975C117.785 222.433 117.602 222.358 117.468 222.223C117.333 222.089 117.258 221.907 117.258 221.717C117.258 221.527 117.333 221.345 117.468 221.211C117.602 221.077 117.785 221.002 117.975 221.002H119.568C119.758 221.002 119.941 221.077 120.075 221.211C120.21 221.345 120.285 221.527 120.285 221.717C120.285 221.907 120.21 222.089 120.075 222.223C119.941 222.358 119.758 222.433 119.568 222.433Z" fill="url(#paint11_linear)"/>
<path d="M111.676 225.016H110.083C109.893 225.016 109.711 224.941 109.576 224.807C109.441 224.672 109.366 224.49 109.366 224.301C109.375 224.117 109.455 223.944 109.588 223.818C109.722 223.691 109.899 223.62 110.083 223.621H111.676C111.86 223.62 112.037 223.691 112.171 223.818C112.305 223.944 112.384 224.117 112.393 224.301C112.393 224.49 112.318 224.672 112.183 224.807C112.049 224.941 111.866 225.016 111.676 225.016Z" fill="url(#paint12_linear)"/>
<path d="M115.629 225.016H114.079C113.889 225.016 113.707 224.941 113.572 224.807C113.438 224.672 113.362 224.49 113.362 224.301C113.371 224.117 113.451 223.944 113.584 223.818C113.718 223.691 113.895 223.62 114.079 223.621H115.672C115.856 223.62 116.034 223.691 116.167 223.818C116.301 223.944 116.38 224.117 116.389 224.301C116.389 224.49 116.314 224.672 116.179 224.807C116.045 224.941 115.862 225.016 115.672 225.016H115.629Z" fill="url(#paint13_linear)"/>
<path d="M119.568 225.016H117.975C117.785 225.016 117.602 224.941 117.468 224.807C117.333 224.672 117.258 224.49 117.258 224.301C117.267 224.117 117.346 223.944 117.48 223.818C117.614 223.691 117.791 223.62 117.975 223.621H119.568C119.752 223.62 119.929 223.691 120.063 223.818C120.196 223.944 120.276 224.117 120.285 224.301C120.285 224.49 120.21 224.672 120.075 224.807C119.941 224.941 119.758 225.016 119.568 225.016Z" fill="url(#paint14_linear)"/>
<path d="M178.168 240.798C175.376 240.798 172.62 240.167 170.107 238.953C167.594 237.738 165.389 235.972 163.659 233.786C161.928 231.6 160.716 229.051 160.114 226.332C159.512 223.612 159.535 220.791 160.182 218.081L172.077 168.254C172.077 168.254 177.587 143.856 194.181 140.707L264.569 140.492C264.569 140.492 278.021 139.232 286.501 160.145C288.574 165.262 307.234 191.479 314.481 188.523L355.374 170.229C355.374 170.229 358.617 166.651 362.735 171.11C366.853 175.569 376.933 182.217 360.863 193.003C340.057 206.974 309.595 217.129 309.595 217.129C309.595 217.129 303.913 219.713 296.832 214.546C289.751 209.378 281.895 204.118 281.895 204.118L269.885 240.798H178.168Z" fill="#006CFF"/>
<path d="M360.877 193.003C340.072 206.974 309.609 217.129 309.609 217.129C309.609 217.129 303.927 219.713 296.846 214.546C289.765 209.378 281.909 204.118 281.909 204.118L269.899 240.798H178.168C175.376 240.798 172.62 240.167 170.107 238.953C167.594 237.738 165.389 235.972 163.659 233.786C161.928 231.6 160.716 229.051 160.114 226.332C159.512 223.612 159.535 220.791 160.182 218.081L172.077 168.254C172.077 168.254 177.587 143.856 194.181 140.707L264.569 140.492C264.569 140.492 278.021 139.232 286.501 160.145C288.574 165.262 307.234 191.479 314.481 188.523L355.374 170.229C355.374 170.229 358.617 166.651 362.735 171.11C364.672 173.214 367.937 175.798 369.192 179.075C370.548 182.754 369.364 187.299 360.877 193.003Z" fill="url(#paint15_linear)"/>
<path d="M242.586 224.816C245.96 223.899 249.42 223.335 252.91 223.135C256.404 223.063 260.013 223.779 262.875 225.775C262.732 226.154 262.479 226.481 262.147 226.714C261.816 226.948 261.423 227.077 261.017 227.085C263.973 227.193 266.757 228.366 269.483 229.511L277.246 232.804C277.47 232.881 277.676 233.006 277.848 233.169C278.451 233.827 277.64 234.901 276.765 235.115C275.89 235.33 274.914 235.165 274.139 235.624C274.719 235.482 275.325 235.497 275.897 235.665C276.469 235.834 276.986 236.15 277.396 236.583C272.116 240.419 265.107 240.605 258.578 240.619C252.336 240.619 246.095 240.619 239.86 240.304C239.466 240.342 239.067 240.298 238.691 240.175C238.314 240.052 237.967 239.852 237.672 239.588C237.285 238.943 237.162 238.175 237.328 237.441C237.643 234.335 237.808 231.179 238.282 228.094C238.662 225.711 240.032 224.816 242.586 224.816Z" fill="#EAC5B0"/>
<path d="M357.864 170.08L361.25 168.054C362.32 167.413 363.587 167.184 364.815 167.409C366.042 167.635 367.144 168.299 367.915 169.278C370.017 171.933 372.37 175.805 372.019 179.52C371.395 186.083 364.845 186.405 364.845 186.405C364.845 186.405 356.508 178.825 357.864 170.08Z" fill="#006CFF"/>
<path d="M370.505 165.964L383.304 159.229C383.308 160.195 383.029 161.141 382.5 161.95C381.97 162.76 381.215 163.396 380.327 163.781C385.456 162.672 390.722 161.512 395.099 158.614C396.024 157.998 397.194 157.282 398.162 157.841C397.555 159.688 396.489 161.353 395.063 162.679L397.215 160.983C397.509 161.577 397.122 162.264 396.734 162.801C395.529 164.466 394.188 166.029 392.724 167.474C393.348 167.102 394.063 166.909 394.79 166.916C394.324 167.893 393.772 168.827 393.14 169.707C390.343 173.581 386.546 176.625 382.151 178.516C377.757 180.406 372.931 181.072 368.188 180.443C367.599 180.387 367.027 180.219 366.502 179.949C365.923 179.575 365.453 179.057 365.139 178.446C364.449 177.21 364.068 175.827 364.027 174.413C363.986 172.999 364.286 171.596 364.902 170.323C365.899 168.34 368.618 166.973 370.505 165.964Z" fill="#EAC5B0"/>
<path d="M215.546 144.922C219.413 148.107 223.488 151.134 228.13 153.038C232.772 154.942 238.052 155.643 242.823 154.105C249.28 152.022 253.735 146.339 257.717 140.893C253.843 140.349 250.428 137.887 248.075 134.766C245.722 131.646 244.323 127.931 243.268 124.174C242.665 122.027 242.127 119.758 240.7 118.033C239.035 116.036 236.395 115.07 233.848 114.655C231.83 114.234 229.733 114.41 227.814 115.163C223.826 116.974 222.548 121.841 220.812 125.856C219.015 129.992 216.319 133.678 212.921 136.649C211.565 137.837 208.767 138.882 209.57 140.671C210.158 142.002 214.341 143.927 215.546 144.922Z" fill="#EAC5B0"/>
<path d="M220.812 125.856C220.812 125.856 223.581 138.116 233.568 137.93C243.555 137.744 244.33 127.459 244.33 127.459L220.812 125.856Z" fill="url(#paint16_linear)"/>
<path d="M215.238 115.722C217.77 121.032 220.977 126.071 225.461 129.32C251.289 148.193 258.069 85.154 257.229 82.191C256.175 78.4335 255.077 74.5616 252.731 71.6558C250.909 69.5278 248.611 67.856 246.023 66.7747C238.76 63.483 230.537 62.9735 222.922 65.3433C220.477 66.0248 218.185 67.1666 216.171 68.7071C212.971 71.2765 210.797 75.263 209.57 79.4427C205.854 92.0104 209.965 104.707 215.238 115.722Z" fill="#EAC5B0"/>
<path d="M230.512 70.5756C238.497 74.3616 240.205 86.1707 248.355 89.5918C250.097 90.266 251.946 90.6271 253.814 90.6582C256.332 90.7571 258.851 90.5164 261.304 89.9425C260.587 82.3846 262.567 74.4976 260.164 67.2905C258.399 61.9943 254.073 58.0293 249.402 55.0019C246.439 53.091 239.444 51.681 233.166 51.7455C227.917 51.7393 222.819 53.5049 218.703 56.7554C214.693 60.0476 212.182 65.4154 213.207 70.4968C216.371 69.6666 219.27 69.867 222.462 69.7811C225.339 69.7525 227.721 69.2515 230.512 70.5756Z" fill="#3F3D56"/>
<path d="M199.899 182.912L191.154 217.652L223.18 219.592L199.899 182.912Z" fill="url(#paint17_linear)"/>
<path d="M234.759 222.948C236.266 225.181 236.667 228.015 236.481 230.706C236.179 233.388 235.7 236.047 235.046 238.665C234.895 239.381 234.838 240.304 235.462 240.69C235.758 240.813 236.084 240.846 236.398 240.783C236.712 240.721 237.001 240.566 237.227 240.34C239.508 238.593 240.054 235.459 240.441 232.617C240.721 230.549 240.972 228.323 240.054 226.477C239.265 224.873 237.736 223.786 236.273 222.762C234.307 221.395 232.198 219.899 229.816 219.405C231.667 220.443 233.504 221.087 234.759 222.948Z" fill="#68E1FD"/>
<path d="M234.759 222.948C236.266 225.181 236.667 228.015 236.481 230.706C236.179 233.388 235.7 236.047 235.046 238.665C234.895 239.381 234.838 240.304 235.462 240.69C235.758 240.813 236.084 240.846 236.398 240.783C236.712 240.721 237.001 240.566 237.227 240.34C239.508 238.593 240.054 235.459 240.441 232.617C240.721 230.549 240.972 228.323 240.054 226.477C239.265 224.873 237.736 223.786 236.273 222.762C234.307 221.395 232.198 219.899 229.816 219.405C231.667 220.443 233.504 221.087 234.759 222.948Z" fill="url(#paint18_linear)"/>
<path d="M387.178 94.2438C410.714 94.2438 429.794 75.2102 429.794 51.7311C429.794 28.252 410.714 9.21843 387.178 9.21843C363.642 9.21843 344.563 28.252 344.563 51.7311C344.563 75.2102 363.642 94.2438 387.178 94.2438Z" fill="#006CFF"/>
<path d="M387.178 83.0931C404.541 83.0931 418.616 69.0518 418.616 51.731C418.616 34.4103 404.541 20.369 387.178 20.369C369.815 20.369 355.74 34.4103 355.74 51.731C355.74 69.0518 369.815 83.0931 387.178 83.0931Z" fill="white"/>
<path d="M405.954 55.889H385.399C384.947 55.889 384.513 55.7108 384.192 55.3931C383.871 55.0754 383.688 54.644 383.684 54.1928C383.683 53.9682 383.725 53.7454 383.809 53.5371C383.894 53.3289 384.019 53.1392 384.176 52.9791C384.334 52.8189 384.522 52.6913 384.73 52.6036C384.937 52.5159 385.16 52.4698 385.385 52.468H405.954C406.408 52.468 406.845 52.6482 407.166 52.969C407.488 53.2897 407.668 53.7248 407.668 54.1785C407.67 54.6297 407.493 55.0634 407.176 55.3851C406.859 55.7068 406.427 55.8905 405.975 55.8962L405.954 55.889Z" fill="#000001"/>
<path d="M387.114 33.6453V54.186C387.11 54.6366 386.929 55.0677 386.609 55.3863C386.29 55.7049 385.858 55.8856 385.406 55.8893C384.954 55.8894 384.52 55.7111 384.199 55.3934C383.877 55.0757 383.695 54.6443 383.691 54.1931V33.6453C383.693 33.1929 383.875 32.7597 384.196 32.4404C384.517 32.1212 384.953 31.9419 385.406 31.9419C385.858 31.9457 386.29 32.1264 386.609 32.445C386.929 32.7636 387.11 33.1947 387.114 33.6453Z" fill="#000001"/>
<path d="M138.759 97.8941H0.00723267V0.00756454H138.759V97.8941ZM7.31789 90.5939H131.434V7.30056H7.31789V90.5939Z" fill="#006CFF"/>
<path d="M44.6387 29.2362H33.4108V74.2753H44.6387V29.2362Z" fill="#006CFF"/>
<path d="M63.737 53.7424H52.5091V74.2759H63.737V53.7424Z" fill="#006CFF"/>
<path d="M82.8135 40.831H71.5857V74.2758H82.8135V40.831Z" fill="#006CFF"/>
<path d="M101.905 29.2362H90.6768V74.2753H101.905V29.2362Z" fill="#006CFF"/>
<path d="M109.394 74.2757H28.1808V76.5159H109.394V74.2757Z" fill="#006CFF"/>
<path d="M360.877 193.003C340.071 206.974 309.609 217.13 309.609 217.13C309.609 217.13 303.927 219.713 296.846 214.546C289.765 209.378 281.909 204.118 281.909 204.118C281.909 204.118 284.542 193.719 277.267 178.539C277.267 178.539 297.865 204.905 302.32 206.237C322.588 212.291 355 184 355 184L360.877 186C362.24 189.679 369.364 187.299 360.877 193.003Z" fill="url(#paint19_linear)"/>
<path d="M203.759 140.478L212.949 136.649C212.949 136.649 232.169 161.34 243.483 151.936C254.797 142.532 254.388 137.93 254.388 137.93L258.965 140.649C258.965 140.649 256.677 157.447 241.46 157.826C226.243 158.205 203.759 140.478 203.759 140.478Z" fill="#006CFF"/>
<path d="M203.759 140.478L212.949 136.649C212.949 136.649 232.169 161.34 243.483 151.936C254.797 142.532 254.388 137.93 254.388 137.93L258.965 140.649C258.965 140.649 252.939 159.558 237.722 159.973C222.505 160.388 203.759 140.478 203.759 140.478Z" fill="url(#paint20_linear)"/>
</g>
<defs>
<linearGradient id="paint0_linear" x1="141.686" y1="332.866" x2="-9.38936" y2="355.546" gradientUnits="userSpaceOnUse">
<stop stop-opacity="0"/>
<stop offset="0.91" stop-opacity="0.8"/>
<stop offset="1"/>
</linearGradient>
<linearGradient id="paint1_linear" x1="117074" y1="-2465.84" x2="117078" y2="-990.387" gradientUnits="userSpaceOnUse">
<stop stop-opacity="0"/>
<stop offset="0.91" stop-opacity="0.8"/>
<stop offset="1"/>
</linearGradient>
<linearGradient id="paint2_linear" x1="117.81" y1="258.433" x2="120.223" y2="209.8" gradientUnits="userSpaceOnUse">
<stop/>
<stop offset="0.98" stop-opacity="0"/>
</linearGradient>
<linearGradient id="paint3_linear" x1="10321.4" y1="5076.45" x2="10327.6" y2="4754.76" gradientUnits="userSpaceOnUse">
<stop/>
<stop offset="0.98" stop-opacity="0"/>
</linearGradient>
<linearGradient id="paint4_linear" x1="92.7212" y1="203.002" x2="93.0996" y2="212.456" gradientUnits="userSpaceOnUse">
<stop stop-color="#68E1FD"/>
<stop offset="0.34" stop-color="#68D4F7"/>
<stop offset="1" stop-color="#69B9EB"/>
</linearGradient>
<linearGradient id="paint5_linear" x1="2204.98" y1="2643.54" x2="2206.64" y2="2727.65" gradientUnits="userSpaceOnUse">
<stop stop-color="#68E1FD"/>
<stop offset="0.34" stop-color="#68D4F7"/>
<stop offset="1" stop-color="#69B9EB"/>
</linearGradient>
<linearGradient id="paint6_linear" x1="785.907" y1="769.383" x2="771.496" y2="821.09" gradientUnits="userSpaceOnUse">
<stop/>
<stop offset="0.98" stop-opacity="0"/>
</linearGradient>
<linearGradient id="paint7_linear" x1="802.404" y1="772.875" x2="787.991" y2="824.571" gradientUnits="userSpaceOnUse">
<stop/>
<stop offset="0.98" stop-opacity="0"/>
</linearGradient>
<linearGradient id="paint8_linear" x1="818.534" y1="776.268" x2="804.124" y2="827.975" gradientUnits="userSpaceOnUse">
<stop/>
<stop offset="0.98" stop-opacity="0"/>
</linearGradient>
<linearGradient id="paint9_linear" x1="789.873" y1="772.614" x2="775.475" y2="824.308" gradientUnits="userSpaceOnUse">
<stop/>
<stop offset="0.98" stop-opacity="0"/>
</linearGradient>
<linearGradient id="paint10_linear" x1="806.37" y1="776.121" x2="791.96" y2="827.826" gradientUnits="userSpaceOnUse">
<stop/>
<stop offset="0.98" stop-opacity="0"/>
</linearGradient>
<linearGradient id="paint11_linear" x1="822.5" y1="779.499" x2="808.091" y2="831.205" gradientUnits="userSpaceOnUse">
<stop/>
<stop offset="0.98" stop-opacity="0"/>
</linearGradient>
<linearGradient id="paint12_linear" x1="794.687" y1="759.642" x2="780.94" y2="810.234" gradientUnits="userSpaceOnUse">
<stop/>
<stop offset="0.98" stop-opacity="0"/>
</linearGradient>
<linearGradient id="paint13_linear" x1="811.184" y1="763.047" x2="797.436" y2="813.64" gradientUnits="userSpaceOnUse">
<stop/>
<stop offset="0.98" stop-opacity="0"/>
</linearGradient>
<linearGradient id="paint14_linear" x1="827.314" y1="766.369" x2="813.565" y2="816.95" gradientUnits="userSpaceOnUse">
<stop/>
<stop offset="0.98" stop-opacity="0"/>
</linearGradient>
<linearGradient id="paint15_linear" x1="77366.3" y1="34089.8" x2="77771.7" y2="18462.6" gradientUnits="userSpaceOnUse">
<stop stop-opacity="0"/>
<stop offset="0.91" stop-opacity="0.8"/>
<stop offset="1"/>
</linearGradient>
<linearGradient id="paint16_linear" x1="230.799" y1="131.639" x2="206.449" y2="190.426" gradientUnits="userSpaceOnUse">
<stop stop-color="#ECC4D7"/>
<stop offset="0.27" stop-color="#ECC6D6"/>
<stop offset="0.37" stop-color="#EECDD4"/>
<stop offset="0.42" stop-color="#EFD4D1"/>
<stop offset="1" stop-color="#F2EAC9"/>
</linearGradient>
<linearGradient id="paint17_linear" x1="9553.41" y1="-11318.6" x2="7535.26" y2="-10241.1" gradientUnits="userSpaceOnUse">
<stop stop-opacity="0"/>
<stop offset="0.91" stop-opacity="0.8"/>
<stop offset="1"/>
</linearGradient>
<linearGradient id="paint18_linear" x1="3958.85" y1="6314.69" x2="3643.25" y2="6240.24" gradientUnits="userSpaceOnUse">
<stop stop-opacity="0"/>
<stop offset="0.91" stop-opacity="0.8"/>
<stop offset="1"/>
</linearGradient>
<linearGradient id="paint19_linear" x1="43138.4" y1="13007" x2="14525.7" y2="7065.58" gradientUnits="userSpaceOnUse">
<stop stop-opacity="0"/>
<stop offset="0.91" stop-opacity="0.8"/>
<stop offset="1"/>
</linearGradient>
<linearGradient id="paint20_linear" x1="18014.5" y1="9634.28" x2="17996.1" y2="7995.48" gradientUnits="userSpaceOnUse">
<stop stop-opacity="0"/>
<stop offset="0.91" stop-opacity="0.8"/>
<stop offset="1"/>
</linearGradient>
<clipPath id="clip0">
<rect width="467" height="426" fill="white"/>
</clipPath>
</defs>
</svg>
